# xmcd
#
# Track frame offsets:
#	150
#	14675
#	29106
#	45496
#	61443
#	78568
#	93298
#	111492
#	129173
#	147648
#	164262
#
# Disc length: 2453 seconds
#
# Revision: 0
# Processed by: cddbd v1.5.2PL0 Copyright (c) Steve Scherf et al.
# Submitted via: EasyCDDAExtractor 15.3.0.1
#
DISCID=9b09930b
DTITLE=Leslie Grace
DYEAR=2013
DGENRE=Latin
TTITLE0=Will You Still Love Me Tomorrow
TTITLE1=Day 1
TTITLE2=Be My Baby
TTITLE3=Adios Corazon
TTITLE4=Odio No Odiarte
TTITLE5=No Me Arrepiento
TTITLE6=A Mi Manera
TTITLE7=Take Me Away
TTITLE8=No Te Rindas
TTITLE9=Hoy
TTITLE10=Will You Still Love Me Tomorrow (Dance Version)
EXTD=
EXTT0=
EXTT1=
EXTT2=
EXTT3=
EXTT4=
EXTT5=
EXTT6=
EXTT7=
EXTT8=
EXTT9=
EXTT10=
PLAYORDER=
